<svg xmlns="http://www.w3.org/2000/svg" width="21" height="24" viewBox="0 0 21 24">
  <g transform="translate(6)">
    <path id="Notification_Icon-2" data-name="Notification Icon" d="M7.875,18.375h5.249a2.625,2.625,0,1,1-5.249,0ZM1.312,17.063a1.312,1.312,0,0,1,0-2.625h.657A5.714,5.714,0,0,0,3.937,10.5V6.563A6.5,6.5,0,0,1,10.5,0a6.5,6.5,0,0,1,6.562,6.563V10.5a5.711,5.711,0,0,0,1.969,3.938h.657a1.312,1.312,0,0,1,0,2.625Z" transform="translate(-6 3)" fill="#363636"/>
    <g id="Notification_Badge" data-name="Notification Badge" transform="translate(5 2)" fill="#c20707" stroke="#fff" stroke-width="2">
      <circle cx="4" cy="4" r="4" stroke="none"/>
      <circle cx="4" cy="4" r="5" fill="none"/>
    </g>
  </g>
</svg>
