<svg width="15" height="15" viewBox="0 0 15 15" fill="none" xmlns="http://www.w3.org/2000/svg">
<g clip-path="url(#clip0)">
<path d="M12.9188 2.30916C11.5031 0.831417 9.54427 -0.00254736 7.49778 0.00121814C3.36207 -0.0039908 0.00515385 3.34445 -5.50979e-05 7.48019C-0.00262819 9.52517 0.831242 11.4822 2.30788 12.897C2.31218 12.9012 2.31378 12.9077 2.31805 12.9114C2.36142 12.9532 2.40855 12.9886 2.45248 13.0287C2.57297 13.1358 2.69347 13.2467 2.8204 13.35C2.8884 13.4036 2.9591 13.4571 3.02873 13.5064C3.14869 13.5958 3.26865 13.6853 3.39395 13.7678C3.47911 13.8213 3.56694 13.8749 3.65421 13.9284C3.76987 13.9981 3.88503 14.0682 4.00446 14.1319C4.10569 14.1855 4.20902 14.2315 4.31185 14.2802C4.42431 14.3338 4.53518 14.3873 4.65031 14.4355C4.76544 14.4837 4.88113 14.5212 4.99786 14.563C5.11459 14.6048 5.21529 14.6433 5.32722 14.6776C5.45361 14.7156 5.58321 14.7451 5.71174 14.7767C5.81884 14.8029 5.92273 14.8329 6.03306 14.8543C6.18086 14.8838 6.33082 14.9025 6.48078 14.9229C6.57344 14.9358 6.66394 14.954 6.75764 14.9631C7.00293 14.9872 7.25032 15.0006 7.49988 15.0006C7.74944 15.0006 7.99687 14.9872 8.24213 14.9631C8.33585 14.954 8.42635 14.9358 8.51898 14.9229C8.66894 14.9025 8.81887 14.8838 8.9667 14.8543C9.0738 14.8329 9.18093 14.8008 9.28802 14.7767C9.41655 14.7451 9.54615 14.7156 9.67254 14.6776C9.78447 14.6433 9.89264 14.6016 10.0019 14.563C10.1112 14.5244 10.2354 14.4827 10.3495 14.4355C10.4635 14.3884 10.5754 14.3332 10.6879 14.2802C10.7907 14.2315 10.8941 14.1855 10.9953 14.1319C11.1147 14.0682 11.2299 13.998 11.3456 13.9284C11.4329 13.8749 11.5207 13.8261 11.6058 13.7678C11.7311 13.6853 11.8511 13.5959 11.971 13.5064C12.0407 13.4528 12.1113 13.4046 12.1794 13.35C12.3063 13.2483 12.4268 13.1401 12.5473 13.0287C12.5912 12.9886 12.6383 12.9532 12.6817 12.9114C12.686 12.9077 12.6876 12.9013 12.6919 12.897C15.6784 10.0359 15.7799 5.29554 12.9188 2.30916ZM11.7152 12.3362C11.6177 12.4219 11.517 12.5033 11.4153 12.5821C11.3553 12.6281 11.2953 12.6736 11.2337 12.7176C11.1368 12.7877 11.0383 12.8541 10.9381 12.9179C10.8653 12.9645 10.7908 13.0094 10.7158 13.0534C10.6216 13.1069 10.5257 13.1605 10.4288 13.214C10.3431 13.2579 10.2558 13.2992 10.168 13.3399C10.0802 13.3806 9.98323 13.4239 9.88843 13.462C9.79364 13.5 9.69297 13.5359 9.59388 13.5691C9.50338 13.6001 9.41288 13.6323 9.32129 13.6596C9.21419 13.6917 9.10226 13.7179 8.9914 13.7447C8.90463 13.7651 8.81897 13.7881 8.73114 13.8053C8.60421 13.8299 8.47461 13.847 8.34448 13.8647C8.27059 13.8743 8.19722 13.8877 8.12276 13.8952C7.9171 13.915 7.70877 13.9268 7.49831 13.9268C7.28785 13.9268 7.07953 13.9151 6.87387 13.8952C6.79944 13.8877 6.72607 13.8743 6.65214 13.8647C6.52201 13.847 6.39242 13.8299 6.26549 13.8053C6.17766 13.7881 6.09196 13.7651 6.00523 13.7447C5.89437 13.718 5.78404 13.6912 5.67534 13.6596C5.58378 13.6323 5.49325 13.6001 5.40275 13.5691C5.30368 13.5348 5.20459 13.5 5.10819 13.462C5.0118 13.4239 4.92076 13.3822 4.82864 13.3399C4.73651 13.2976 4.65351 13.2579 4.56784 13.214C4.47091 13.1637 4.37505 13.1107 4.28079 13.0534C4.20582 13.0095 4.13136 12.9645 4.05853 12.9179C3.9584 12.8541 3.85983 12.7877 3.7629 12.7176C3.70131 12.6737 3.64134 12.6281 3.58134 12.5821C3.47958 12.5033 3.37892 12.4214 3.28145 12.3362C3.25789 12.3186 3.23646 12.2961 3.21346 12.2757C3.2374 10.4539 4.40775 8.84531 6.13376 8.26185C6.99678 8.67238 7.99878 8.67238 8.8618 8.26185C10.5878 8.84531 11.7581 10.4539 11.7821 12.2757C11.7596 12.2961 11.7382 12.3164 11.7152 12.3362ZM5.63031 4.29508C6.21017 3.26384 7.5162 2.89792 8.54744 3.47778C9.57869 4.05764 9.9446 5.36367 9.36475 6.39491C9.17236 6.73707 8.88963 7.0198 8.54744 7.21222C8.54478 7.21222 8.54155 7.21222 8.53834 7.21542C8.39632 7.29446 8.24624 7.35803 8.09063 7.40501C8.06279 7.41304 8.03706 7.42374 8.00763 7.43071C7.95406 7.44464 7.89783 7.45427 7.84267 7.46391C7.7388 7.48208 7.63371 7.49262 7.52831 7.49551H7.46725C7.36185 7.49262 7.25676 7.48208 7.15289 7.46391C7.09933 7.45427 7.04256 7.44464 6.98796 7.43071C6.95956 7.42374 6.9344 7.41304 6.90496 7.40501C6.74935 7.35803 6.59927 7.29449 6.45725 7.21542L6.44761 7.21222C5.41637 6.63236 5.05045 5.32633 5.63031 4.29508ZM12.7321 11.2138C12.3885 9.61084 11.3329 8.2519 9.86487 7.52234C11.065 6.21505 10.978 4.1824 9.67076 2.9823C8.36347 1.78221 6.33082 1.86913 5.13072 3.17641C4.00252 4.40541 4.00252 6.29337 5.13072 7.52234C3.66265 8.25193 2.60712 9.61084 2.26345 11.2138C0.209872 8.32116 0.890047 4.31146 3.78267 2.25788C6.6753 0.204304 10.685 0.884479 12.7386 3.77711C13.5105 4.86449 13.9249 6.16519 13.9243 7.49874C13.9243 8.83113 13.5074 10.1301 12.7321 11.2138Z" fill="white"/>
</g>
<defs>
<clipPath id="clip0">
<rect width="15" height="15" fill="white"/>
</clipPath>
</defs>
</svg>
