<svg xmlns="http://www.w3.org/2000/svg" width="47.045" height="47.375" viewBox="0 0 47.045 47.375">
  <path id="Path_27" data-name="Path 27" d="M15.131,2.757A23.42,23.42,0,0,1,33.7,3.3a15.548,15.548,0,0,0-4.934.214A23.852,23.852,0,0,0,16.882,9.533a20.575,20.575,0,0,0-5.965,11.616,16.224,16.224,0,0,0,1.364,9.229,13.721,13.721,0,0,0,7.012,6.682A12.576,12.576,0,0,0,36.645,26.352a12.049,12.049,0,0,0-2.6-8.8,14.729,14.729,0,0,0-7.8-4.352,9.613,9.613,0,0,1,3.337-7.594,10.5,10.5,0,0,1,4.192-2.2l.116-.04A23.865,23.865,0,0,1,44.337,13.2a23.483,23.483,0,0,1,2.979,11.969A23.519,23.519,0,1,1,.284,24.5,23.632,23.632,0,0,1,15.131,2.757Zm0,0" transform="translate(-0.279 -1.102)" fill="#c20707"/>
</svg>
