<?xml version="1.0"?>
<svg xmlns="http://www.w3.org/2000/svg" xmlns:xlink="http://www.w3.org/1999/xlink" xmlns:svgjs="http://svgjs.com/svgjs" version="1.1" width="512" height="512" x="0" y="0" viewBox="0 0 24 24" style="enable-background:new 0 0 512 512" xml:space="preserve" class=""><g><path xmlns="http://www.w3.org/2000/svg" d="m15.5 7h-7c-.827 0-1.5-.673-1.5-1.5s.673-1.5 1.5-1.5h7c.827 0 1.5.673 1.5 1.5s-.673 1.5-1.5 1.5zm-7-2c-.276 0-.5.225-.5.5s.224.5.5.5h7c.276 0 .5-.225.5-.5s-.224-.5-.5-.5z" fill="white" data-original="#000000" style="" class=""/><path xmlns="http://www.w3.org/2000/svg" d="m14.5 5c-.147 0-.292-.064-.391-.188-.172-.216-.137-.53.078-.703l2.774-2.219c.257-.205.188-.478.16-.557-.027-.077-.143-.333-.472-.333h-9.298c-.329 0-.445.256-.472.334-.028.079-.098.352.16.557l2.774 2.219c.215.173.25.487.078.703-.172.215-.487.25-.703.078l-2.774-2.219c-.505-.404-.693-1.059-.479-1.669.214-.609.77-1.003 1.416-1.003h9.299c.646 0 1.202.394 1.416 1.003.214.61.026 1.265-.479 1.669l-2.774 2.219c-.093.073-.203.109-.313.109z" fill="white" data-original="#000000" style="" class=""/><path xmlns="http://www.w3.org/2000/svg" d="m12.5 18.5h-2.5c-.276 0-.5-.224-.5-.5s.224-.5.5-.5h2.5c.551 0 1-.448 1-1s-.449-1-1-1h-1c-1.103 0-2-.897-2-2s.897-2 2-2h2.5c.276 0 .5.224.5.5s-.224.5-.5.5h-2.5c-.551 0-1 .448-1 1s.449 1 1 1h1c1.103 0 2 .897 2 2s-.897 2-2 2z" fill="white" data-original="#000000" style="" class=""/><path xmlns="http://www.w3.org/2000/svg" d="m12 20c-.276 0-.5-.224-.5-.5v-1.5c0-.276.224-.5.5-.5s.5.224.5.5v1.5c0 .276-.224.5-.5.5z" fill="white" data-original="#000000" style="" class=""/><path xmlns="http://www.w3.org/2000/svg" d="m12 12.5c-.276 0-.5-.224-.5-.5v-1.5c0-.276.224-.5.5-.5s.5.224.5.5v1.5c0 .276-.224.5-.5.5z" fill="white" data-original="#000000" style="" class=""/><path xmlns="http://www.w3.org/2000/svg" d="m15.5 24h-7c-3.799 0-5.5-3.265-5.5-6.5 0-4.643 2.451-9.45 5.827-11.432.077-.045.164-.068.253-.068h5.84c.089 0 .176.023.253.068 3.376 1.982 5.827 6.789 5.827 11.432 0 3.235-1.701 6.5-5.5 6.5zm-6.282-17c-3.03 1.854-5.218 6.243-5.218 10.5 0 2.537 1.179 5.5 4.5 5.5h7c3.321 0 4.5-2.963 4.5-5.5 0-4.257-2.188-8.646-5.218-10.5z" fill="white" data-original="#000000" style="" class=""/></g></svg>
