<svg id="contrato" xmlns="http://www.w3.org/2000/svg" width="25" height="24" viewBox="0 0 25 24">
  <g id="Group_23" data-name="Group 23">
    <g id="Group_22" data-name="Group 22">
      <path id="Path_390" data-name="Path 390" d="M121.123,201.192A1.192,1.192,0,0,0,119.931,200h-12.28a1.192,1.192,0,0,0,0,2.384h12.28A1.192,1.192,0,0,0,121.123,201.192Z" transform="translate(-102.58 -190.841)" fill="#363636"/>
      <path id="Path_391" data-name="Path 391" d="M107.651,280a1.192,1.192,0,1,0,0,2.384h7.458a1.192,1.192,0,1,0,0-2.384Z" transform="translate(-102.337 -267.177)" fill="#363636"/>
      <path id="Path_392" data-name="Path 392" d="M34.475,22.125h-3.6a2.031,2.031,0,0,1-2.153-1.875V3.75a2.031,2.031,0,0,1,2.153-1.875H44.107A2.031,2.031,0,0,1,46.26,3.75V9.516a1.087,1.087,0,0,0,2.153,0V3.75A4.061,4.061,0,0,0,44.107,0H30.875A4.061,4.061,0,0,0,26.57,3.75v16.5A4.061,4.061,0,0,0,30.875,24h3.6a.946.946,0,1,0,0-1.875Z" transform="translate(-26.57)" fill="#363636"/>
      <path id="Path_393" data-name="Path 393" d="M256.835,273.07a3.58,3.58,0,0,0-5.057,0l-6.546,6.531a1.192,1.192,0,0,0-.3.5l-1.425,4.693a1.192,1.192,0,0,0,1.459,1.5l4.812-1.333a1.192,1.192,0,0,0,.524-.305l6.532-6.52A3.581,3.581,0,0,0,256.835,273.07Zm-7.994,9.669-2.421.671.708-2.333,4.417-4.407,1.686,1.686Zm6.309-6.3-.231.231-1.686-1.686.23-.23a1.192,1.192,0,0,1,1.687,1.685Z" transform="translate(-232.881 -262.329)" fill="#363636"/>
      <path id="Path_394" data-name="Path 394" d="M119.931,120h-12.28a1.192,1.192,0,0,0,0,2.384h12.28a1.192,1.192,0,0,0,0-2.384Z" transform="translate(-102.58 -114.505)" fill="#363636"/>
    </g>
  </g>
</svg>
