<svg xmlns="http://www.w3.org/2000/svg" width="401.524" height="399.505" viewBox="0 0 401.524 399.505">
  <g id="edit" transform="translate(0 -0.261)">
    <path id="Path_423" data-name="Path 423" d="M370.59,250.973a10,10,0,0,0-10,10v88.789a30.03,30.03,0,0,1-30,30H50a30.03,30.03,0,0,1-30-30V89.172a30.035,30.035,0,0,1,30-30h88.789a10,10,0,0,0,0-20H50a50.056,50.056,0,0,0-50,50V349.766a50.056,50.056,0,0,0,50,50H330.59a50.056,50.056,0,0,0,50-50V260.973a10,10,0,0,0-10-10Zm0,0" fill="#363636"/>
    <path id="Path_424" data-name="Path 424" d="M376.629,13.441a45,45,0,0,0-63.641,0L134.582,191.847a10,10,0,0,0-2.566,4.4l-23.461,84.7a10,10,0,0,0,12.3,12.309l84.7-23.465a10,10,0,0,0,4.4-2.566l178.4-178.41a45.05,45.05,0,0,0,0-63.641ZM156.371,198.347,302.383,52.331l47.09,47.09L203.457,245.437Zm-9.406,18.875,37.621,37.625-52.039,14.418ZM374.223,74.675,363.617,85.281,316.523,38.187l10.609-10.605a25,25,0,0,1,35.352,0l11.738,11.734A25.036,25.036,0,0,1,374.223,74.675Zm0,0" fill="#363636"/>
  </g>
</svg>
