<svg width="25" height="29" viewBox="0 0 25 29" fill="none" xmlns="http://www.w3.org/2000/svg">
<path d="M17.7553 12.4072C17.7553 11.8054 17.2675 11.3175 16.6657 11.3175H5.4422C4.84038 11.3175 4.35254 11.8054 4.35254 12.4072C4.35254 13.009 4.84038 13.4968 5.4422 13.4968H16.6657C17.2675 13.4968 17.7553 13.009 17.7553 12.4072Z" fill="#484848"/>
<path d="M5.44219 15.6761C4.84038 15.6761 4.35254 16.164 4.35254 16.7658C4.35254 17.3676 4.84038 17.8555 5.44219 17.8555H12.2586C12.8604 17.8555 13.3482 17.3676 13.3482 16.7658C13.3482 16.164 12.8604 15.6761 12.2586 15.6761H5.44219Z" fill="#484848"/>
<path d="M8.00293 26.1368H4.35862C3.15695 26.1368 2.17931 25.1592 2.17931 23.9575V4.77958C2.17931 3.57791 3.15695 2.60027 4.35862 2.60027H17.7553C18.957 2.60027 19.9347 3.57791 19.9347 4.77958V11.481C19.9347 12.0828 20.4225 12.5706 21.0243 12.5706C21.6261 12.5706 22.114 12.0828 22.114 11.481V4.77958C22.114 2.37624 20.1587 0.420959 17.7553 0.420959H4.35862C1.95528 0.420959 0 2.37624 0 4.77958V23.9575C0 26.3609 1.95528 28.3162 4.35862 28.3162H8.00293C8.60474 28.3162 9.09258 27.8283 9.09258 27.2265C9.09258 26.6247 8.60474 26.1368 8.00293 26.1368Z" fill="#484848"/>
<path d="M24.0441 16.1976C22.7695 14.9231 20.6957 14.923 19.4219 16.1968L13.4395 22.1659C13.3125 22.2927 13.2188 22.4488 13.1666 22.6206L11.8637 26.9097C11.7482 27.29 11.8488 27.7029 12.1264 27.9874C12.3343 28.2005 12.6167 28.3162 12.9064 28.3162C13.0033 28.3162 13.1012 28.3032 13.1972 28.2765L17.5954 27.0583C17.7764 27.0081 17.9413 26.9121 18.0743 26.7794L24.0441 20.8207C25.3187 19.5462 25.3187 17.4723 24.0441 16.1976ZM16.7375 25.0345L14.5248 25.6475L15.1724 23.5156L19.2089 19.488L20.7502 21.0293L16.7375 25.0345ZM22.5039 19.2791L22.2928 19.4898L20.7517 17.9487L20.9621 17.7388C21.387 17.3139 22.0783 17.3139 22.5031 17.7388C22.928 18.1636 22.928 18.8549 22.5039 19.2791Z" fill="#484848"/>
<path d="M16.6657 6.95889H5.4422C4.84038 6.95889 4.35254 7.44673 4.35254 8.04855C4.35254 8.65037 4.84038 9.13821 5.4422 9.13821H16.6657C17.2675 9.13821 17.7553 8.65037 17.7553 8.04855C17.7553 7.44673 17.2675 6.95889 16.6657 6.95889Z" fill="#484848"/>
</svg>
