<svg id="hand-shake" xmlns="http://www.w3.org/2000/svg" width="32.38" height="22.998" viewBox="0 0 32.38 22.998">
  <g id="Group_7"  transform="translate(5.575 0.696)">
    <g id="Group_6"  transform="translate(0 0)">
      <path id="Path_382"  d="M94.845,133.416c-.616-1.571-2.819-3.752-4.948-5.86-1.187-1.175-2.309-2.285-3.024-3.16a.571.571,0,0,0-.684-.187c-.441.2-.713.346-.927.462a1.871,1.871,0,0,1-.877.294.647.647,0,0,0-.479.35c-.924,1.691-1.882,1.547-2.521,1.285a.356.356,0,0,1-.26-.293,5.81,5.81,0,0,1,1.445-3.431c2.125-2.6,3.22-3.253,5.535-1.987,2.625,1.437,5.256,2.562,5.282,2.573a.632.632,0,0,0,.833-.493.857.857,0,0,0-.4-1.019c-.026-.011-2.6-1.114-5.178-2.523-3-1.64-4.643-.56-6.992,2.317-.894,1.094-2.109,3.309-1.8,4.933a1.862,1.862,0,0,0,1.123,1.442c1.481.6,2.833.026,3.84-1.61a2.891,2.891,0,0,0,.982-.381c.123-.067.267-.146.458-.24.748.859,1.757,1.859,2.82,2.911,1.922,1.9,4.1,4.06,4.592,5.308a1.073,1.073,0,0,1-.195,1.2c-.259.272-.613.358-.805.194a.556.556,0,0,0-.706-.029.865.865,0,0,0-.315.773.973.973,0,0,1-.5.9.848.848,0,0,1-1.019.029.572.572,0,0,0-.679-.163.8.8,0,0,0-.418.674,1.51,1.51,0,0,1-.771,1.226.593.593,0,0,1-.75-.142.578.578,0,0,0-.6-.186.719.719,0,0,0-.459.5c-.025.08-.081.272-.693.272a3.332,3.332,0,0,1-1.6-.67c-.459-.37-3.337-3-5.822-5.545-.349-.36-.953-1.131-1.487-1.813-.473-.6-.906-1.154-1.128-1.384a.573.573,0,0,0-.922.094.93.93,0,0,0,.077,1.128c.2.21.595.717,1.028,1.269.583.746,1.186,1.517,1.591,1.933,2.435,2.495,5.361,5.188,5.944,5.657a4.431,4.431,0,0,0,2.321.931,1.979,1.979,0,0,0,1.484-.534,1.692,1.692,0,0,0,1.487-.019,2.863,2.863,0,0,0,1.361-1.538,2.123,2.123,0,0,0,1.641-.29,2.562,2.562,0,0,0,1.092-1.4,1.917,1.917,0,0,0,1.5-.658A2.944,2.944,0,0,0,94.845,133.416Z" transform="translate(-74.642 -118.658)" fill="#363636"/>
    </g>
  </g>
  <g id="Group_9"  transform="translate(7.537 2.196)">
    <g id="Group_8" >
      <path id="Path_383"  d="M113.2,138.663H107.32a.816.816,0,0,0,0,1.6H113.2a.816.816,0,0,0,0-1.6Z" transform="translate(-106.666 -138.663)" fill="#363636"/>
    </g>
  </g>
  <g id="Group_11"  transform="translate(24.585 13.396)">
    <g id="Group_10" >
      <path id="Path_384" data-name="Path 384" d="M387.919,288.332a.583.583,0,0,0-.907-.218l-1.912,1.571a.917.917,0,0,0-.178,1.11.633.633,0,0,0,.544.354.568.568,0,0,0,.363-.136l1.912-1.571A.917.917,0,0,0,387.919,288.332Z" transform="translate(-384.811 -287.977)" fill="#363636"/>
    </g>
  </g>
  <g id="Group_13" transform="translate(18.652 12.596)">
    <g id="Group_12" >
      <path id="Path_385"  d="M293,282.29c-.468-.451-2.561-3.074-3.856-4.725a.572.572,0,0,0-.924-.024.93.93,0,0,0-.02,1.131c.336.429,3.3,4.21,3.989,4.876a.58.58,0,0,0,.4.171.624.624,0,0,0,.515-.306A.925.925,0,0,0,293,282.29Z" transform="translate(-288.016 -277.317)" fill="#363636"/>
    </g>
  </g>
  <g id="Group_15"  transform="translate(16.69 14.998)">
    <g id="Group_14" >
      <path id="Path_386"  d="M260.337,313.513c-.783-.766-2.751-3.325-3.2-3.917a.575.575,0,0,0-.924-.048.932.932,0,0,0-.039,1.131c.024.03,2.372,3.133,3.342,4.084a.586.586,0,0,0,.408.174.622.622,0,0,0,.511-.3A.929.929,0,0,0,260.337,313.513Z" transform="translate(-256.005 -309.337)" fill="#363636"/>
    </g>
  </g>
  <g id="Group_17"  transform="translate(14.075 16.596)">
    <g id="Group_16" >
      <path id="Path_387"  d="M217.687,334.833c-.932-.962-2.84-3.447-3.212-3.935a.573.573,0,0,0-.924-.038.932.932,0,0,0-.031,1.131c.536.7,2.361,3.071,3.325,4.066a.586.586,0,0,0,.421.189.615.615,0,0,0,.5-.285A.93.93,0,0,0,217.687,334.833Z" transform="translate(-213.343 -330.644)" fill="#363636"/>
    </g>
  </g>
  <g id="Group_19" >
    <g id="Group_18" >
      <path id="Path_388" data-name="Path 388" d="M7.641,97.822C6.52,96.523,2.04,96.1.693,96a.585.585,0,0,0-.488.216A.893.893,0,0,0,0,96.8v14.4a.738.738,0,0,0,.654.8H4.576a.681.681,0,0,0,.621-.552c.1-.358,2.348-8.82,2.645-12.98A.9.9,0,0,0,7.641,97.822ZM4.1,110.4H1.307V97.661A16.671,16.671,0,0,1,6.5,98.8,99.585,99.585,0,0,1,4.1,110.4Z" transform="translate(0 -96.004)" fill="#363636"/>
    </g>
  </g>
  <g id="Group_21"  transform="translate(23.251 0.596)">
    <g id="Group_20" >
      <path id="Path_389"  d="M371.522,117.33a17.231,17.231,0,0,0-8.1,1.675.771.771,0,0,0-.349.5.965.965,0,0,0,.072.65,122.331,122.331,0,0,1,3.824,12.592.69.69,0,0,0,.63.587h3.922a.738.738,0,0,0,.654-.8v-14.4A.737.737,0,0,0,371.522,117.33Zm-.654,14.4h-2.78c-.62-2.471-2.45-8.913-3.471-11.575a17.816,17.816,0,0,1,6.251-1.216Z" transform="translate(-363.046 -117.33)" fill="#363636"/>
    </g>
  </g>
</svg>
