<?xml version="1.0"?>
<svg xmlns="http://www.w3.org/2000/svg" xmlns:xlink="http://www.w3.org/1999/xlink" xmlns:svgjs="http://svgjs.com/svgjs" version="1.1" width="512" height="512" x="0" y="0" viewBox="0 0 512 512" style="enable-background:new 0 0 512 512" xml:space="preserve" class=""><g><g xmlns="http://www.w3.org/2000/svg"><path d="m139.688 510.622c-3.093 0-5.988-1.927-7.074-5.01l-132.187-375.212c-.977-2.771-.245-5.856 1.872-7.895 36.144-34.806 66.755-54.344 99.256-63.352 3.994-1.105 8.125 1.232 9.231 5.225 1.106 3.991-1.233 8.124-5.224 9.23-28.948 8.023-56.653 25.474-89.375 56.38l76.635 217.529c64.702-59.476 115.988-72.424 205.765-53.497 87.012 18.349 133.801 5.7 197.23-54.256l-44.444-126.152c-1.376-3.907.676-8.189 4.582-9.566 3.907-1.375 8.188.675 9.566 4.582l46.055 130.725c.976 2.771.244 5.856-1.872 7.895-50.381 48.517-91.807 69.5-147.088 69.504-20.164.001-42.161-2.789-67.125-8.053-87.253-18.4-133.761-5.736-197.23 54.256l48.502 137.674c1.376 3.907-.675 8.189-4.582 9.566-.825.29-1.667.427-2.493.427zm159.439-233.145c-.49 0-.983-.048-1.471-.146-25.938-5.188-51.001-18.892-72.479-39.632-23.791-22.973-42.508-53.51-55.633-90.764-.945-2.683-.292-5.668 1.687-7.711.975-1.006 24.375-24.811 68.115-39.342.704-.234 1.439-.362 2.181-.381 47.966-1.166 83.929 12.172 85.436 12.741 2.07.781 3.69 2.438 4.426 4.524 13.193 37.453 16.893 70.835 10.991 99.219-5.416 26.058-18.941 46.89-39.112 60.244-1.237.82-2.679 1.248-4.141 1.248zm-20.258-21.544c6.131 2.563 12.366 4.581 18.658 6.029 3.899-2.829 7.479-6.023 10.72-9.559l-12.018-34.11c-1.376-3.907.676-8.189 4.582-9.566 3.906-1.375 8.19.675 9.566 4.582l8.502 24.135c3.987-7.34 6.952-15.553 8.814-24.51 3.638-17.498 3.16-37.326-1.399-59.21l-34.817 5.937 9.093 25.81c1.376 3.907-.676 8.189-4.582 9.566-3.905 1.375-8.19-.675-9.566-4.582l-9.947-28.235-28.886 4.925zm-80.748-80.355c10.391 20.1 22.929 37.284 37.476 51.33 7.51 7.253 15.481 13.549 23.77 18.809l-26.78-76.015zm-12.761-29.016c1.903 5.126 3.919 10.109 6.046 14.945l131.324-22.392c-1.271-4.566-2.707-9.215-4.307-13.939-9.515-3.065-38.949-11.409-75.408-10.703-30.621 10.371-50.233 25.607-57.655 32.089zm263.145-56.158c-3.093 0-5.987-1.927-7.074-5.01l-22.252-63.16c-64.683 59.432-116.225 72.376-205.763 53.499-31.526-6.647-56.51-8.935-78.627-7.196-4.122.317-7.74-2.759-8.065-6.889s2.76-7.74 6.889-8.064c23.587-1.856 49.928.52 82.898 7.472 88.6 18.682 135.494 5.229 200.713-57.578 1.837-1.771 4.45-2.485 6.932-1.896 2.483.589 4.496 2.399 5.345 4.806l26.079 74.023c1.376 3.907-.675 8.189-4.582 9.566-.825.29-1.666.427-2.493.427z" fill="#ffffff" data-original="#000000" style=""/></g></g></svg>
