<svg width="14" height="14" viewBox="0 0 14 14" fill="none" xmlns="http://www.w3.org/2000/svg">
<g clip-path="url(#clip0)">
<path d="M14 7C14 6.42715 13.6271 5.94007 13.1113 5.76792V4.13052C13.6271 3.95836 14 3.47129 14 2.89844C14 2.32559 13.6271 1.83851 13.1113 1.66636V0H12.291V1.66636C11.9043 1.79545 11.5982 2.10159 11.4691 2.48828H10.3058C9.46419 2.48828 8.69537 2.9496 8.29932 3.69217L7.61914 4.96748L5.7076 3.17543C5.23499 2.7323 4.61789 2.48828 3.97004 2.48828H2.53091C2.40182 2.10159 2.09568 1.79545 1.70898 1.66636V0H0.888672V1.66636C0.372941 1.83851 0 2.32559 0 2.89844C0 3.47129 0.372941 3.95836 0.888672 4.13052V5.76792C0.372941 5.94007 0 6.42715 0 7C0 7.57285 0.372941 8.05993 0.888672 8.23208V9.86948C0.372941 10.0416 0 10.5287 0 11.1016C0 11.6744 0.372941 12.1615 0.888672 12.3336V14H1.70898V12.3336C2.09568 12.2046 2.40182 11.8984 2.53091 11.5117H3.6942C4.53581 11.5117 5.30463 11.0504 5.70068 10.3078L6.42461 8.95048L8.2924 10.7015C8.76504 11.1446 9.38213 11.3886 10.03 11.3886H11.4347C11.5354 11.8328 11.8642 12.1911 12.291 12.3336V14H13.1114V12.3336C13.6271 12.1615 14 11.6744 14 11.1016C14 10.5287 13.6271 10.0416 13.1113 9.86948V8.23208C13.6271 8.05993 14 7.57285 14 7V7ZM12.7012 7.47852C12.4373 7.47852 12.2227 7.26384 12.2227 7C12.2227 6.73616 12.4373 6.52148 12.7012 6.52148C12.965 6.52148 13.1797 6.73616 13.1797 7C13.1797 7.26384 12.965 7.47852 12.7012 7.47852ZM12.7012 2.41992C12.965 2.41992 13.1797 2.6346 13.1797 2.89844C13.1797 3.16228 12.965 3.37695 12.7012 3.37695C12.4373 3.37695 12.2227 3.16228 12.2227 2.89844C12.2227 2.6346 12.4373 2.41992 12.7012 2.41992ZM9.02314 4.07821C9.27631 3.6035 9.76782 3.30859 10.3058 3.30859H11.4691C11.5982 3.69529 11.9043 4.00143 12.291 4.13052V5.76792C11.9043 5.89701 11.5982 6.20315 11.4691 6.58984H10.03C9.59129 6.58984 9.17345 6.42461 8.85341 6.12459L8.23895 5.54854L9.02314 4.07821ZM5.14659 3.77385L7.21938 5.71709L6.2046 7.6198L5.70765 7.15392C5.23502 6.71081 4.61792 6.4668 3.97007 6.4668H2.48268C2.33431 6.1387 2.05365 5.88298 1.70898 5.76792V4.13052C2.09568 4.00143 2.40182 3.69529 2.53091 3.30859H3.97004C4.40871 3.30859 4.82655 3.47383 5.14659 3.77385V3.77385ZM1.29883 2.41992C1.56267 2.41992 1.77734 2.6346 1.77734 2.89844C1.77734 3.16228 1.56267 3.37695 1.29883 3.37695C1.03499 3.37695 0.820312 3.16228 0.820312 2.89844C0.820312 2.6346 1.03499 2.41992 1.29883 2.41992ZM1.29883 6.52148C1.56267 6.52148 1.77734 6.73616 1.77734 7C1.77734 7.26384 1.56267 7.47852 1.29883 7.47852C1.03499 7.47852 0.820312 7.26384 0.820312 7C0.820312 6.73616 1.03499 6.52148 1.29883 6.52148ZM1.29883 11.5801C1.03499 11.5801 0.820312 11.3654 0.820312 11.1016C0.820312 10.8377 1.03499 10.623 1.29883 10.623C1.56267 10.623 1.77734 10.8377 1.77734 11.1016C1.77734 11.3654 1.56267 11.5801 1.29883 11.5801ZM4.97686 9.92179C4.72369 10.3965 4.23218 10.6914 3.6942 10.6914H2.53091C2.40182 10.3047 2.09568 9.99857 1.70898 9.86948V8.23208C2.13588 8.08959 2.46463 7.73128 2.56528 7.28711H3.97004C4.40871 7.28711 4.82655 7.45235 5.14659 7.75236L5.8048 8.36943L4.97686 9.92179ZM8.85341 10.1031L6.82437 8.20088L7.83915 6.29817L8.29235 6.72304C8.76501 7.16614 9.38211 7.41016 10.03 7.41016H11.4691C11.5982 7.79685 11.9043 8.10299 12.291 8.23208V9.86948C11.9463 9.98454 11.6657 10.2403 11.5173 10.5684H10.03C9.59129 10.5684 9.17345 10.4031 8.85341 10.1031V10.1031ZM12.7012 11.5801C12.4373 11.5801 12.2227 11.3654 12.2227 11.1016C12.2227 10.8377 12.4373 10.623 12.7012 10.623C12.965 10.623 13.1797 10.8377 13.1797 11.1016C13.1797 11.3654 12.965 11.5801 12.7012 11.5801Z" fill="white"/>
</g>
<defs>
<clipPath id="clip0">
<rect width="14" height="14" fill="white"/>
</clipPath>
</defs>
</svg>
