<svg width="21" height="19" viewBox="0 0 21 19" fill="none" xmlns="http://www.w3.org/2000/svg">
<path d="M20.3708 4.10885H12.971V1.20502C12.971 0.857551 12.6893 0.575851 12.3418 0.575851H8.19498C7.84751 0.575851 7.56581 0.857551 7.56581 1.20502V4.10885H0.62917C0.2817 4.10885 0 4.39055 0 4.73802V17.795C0 18.1424 0.2817 18.4241 0.62917 18.4241H20.3708C20.7183 18.4241 21 18.1424 21 17.795V4.73802C21 4.39055 20.7183 4.10885 20.3708 4.10885ZM11.7127 1.83419C11.7127 2.36932 11.7127 5.16724 11.7127 5.51986C11.7127 6.3148 11.066 6.96402 10.2685 6.96402C9.47219 6.96402 8.82435 6.31614 8.82435 5.51986C8.82435 5.33111 8.82419 4.7506 8.82419 1.83419H11.7127ZM19.7417 17.1658H1.25834V5.36719H7.56581C7.56581 7.16892 8.88832 8.22236 10.2684 8.22236C10.2684 8.22236 10.2684 8.22236 10.2685 8.22236C10.2685 8.22236 10.2685 8.22236 10.2685 8.22236C11.6488 8.22236 12.971 7.17093 12.971 5.36719H19.7417V17.1658Z" fill="#484848"/>
<path d="M11.6198 9.59578C11.6198 9.94325 11.9015 10.225 12.249 10.225H17.5304C17.8779 10.225 18.1596 9.94325 18.1596 9.59578C18.1596 9.24831 17.8779 8.96661 17.5304 8.96661H12.249C11.9015 8.96661 11.6198 9.24827 11.6198 9.59578Z" fill="#484848"/>
<path d="M17.5304 11.2664H12.249C11.9015 11.2664 11.6198 11.5481 11.6198 11.8956C11.6198 12.243 11.9015 12.5247 12.249 12.5247H17.5304C17.8779 12.5247 18.1596 12.243 18.1596 11.8956C18.1596 11.5481 17.8779 11.2664 17.5304 11.2664Z" fill="#484848"/>
<path d="M17.5304 13.5662H12.249C11.9015 13.5662 11.6198 13.8479 11.6198 14.1954C11.6198 14.5429 11.9015 14.8246 12.249 14.8246H17.5304C17.8779 14.8246 18.1596 14.5429 18.1596 14.1954C18.1596 13.8479 17.8779 13.5662 17.5304 13.5662Z" fill="#484848"/>
<path d="M7.24384 8.96661H3.40557C3.0581 8.96661 2.7764 9.24831 2.7764 9.59578V14.1954C2.7764 14.5429 3.0581 14.8246 3.40557 14.8246H7.24384C7.59131 14.8246 7.87301 14.5429 7.87301 14.1954V9.59578C7.87301 9.24827 7.59131 8.96661 7.24384 8.96661ZM6.61467 13.5662H4.03474V10.225H6.61467V13.5662Z" fill="#484848"/>
</svg>
