<svg id="business-man-walking-with-suitcase" xmlns="http://www.w3.org/2000/svg" width="25" height="24" viewBox="0 0 25 24">
  <g id="Group_4" data-name="Group 4">
    <path id="Path_374" data-name="Path 374" d="M139.7,597.609c-.542.521-.334,1.236.463,1.592a2.353,2.353,0,0,0,2.419-.3c.27-.26,3-2.885,5.646-5.447l-2.115-2.031C143.055,594.375,139.9,597.411,139.7,597.609Z" transform="translate(-139.398 -575.4)" fill="#363636"/>
    <path id="Path_375" data-name="Path 375" d="M266.739,2.073c0,1.147,1.413,2.076,3.155,2.076s3.153-.929,3.153-2.076S271.636,0,269.894,0,266.739.928,266.739,2.073Z" transform="translate(-261.497)" fill="#363636"/>
    <path id="Path_376" data-name="Path 376" d="M174.088,186.5h-2.464v-.832c0-.224-.277-.406-.618-.406h-1.312a.647.647,0,0,0-.221-.582l-6.635-6.349a2.672,2.672,0,0,0-1.883-.662h-4.978a2.707,2.707,0,0,0-1.736.545s-2.982,2.686-3.646,3.281a.671.671,0,0,0-.249.585c0,.432,0,2.608,0,3.271,0,.478.587.864,1.309.864s1.316-.385,1.318-.862c0-.2,0-2.12,0-3.07l1.886-1.694v4.132a3.044,3.044,0,0,0,.909,2.411c2.2,2.109,9.155,8.794,9.6,9.222a2.359,2.359,0,0,0,2.422.3c.8-.357,1-1.071.462-1.592-.133-.129-1.614-1.551-3.5-3.367h9.344c.444,0,.8-.237.8-.529v-4.141C174.891,186.734,174.531,186.5,174.088,186.5Zm-8.6-.832v.832h-2.378c-.444,0-.8.237-.8.529v2.331l-.793-.761v-8.49l5.383,5.153h-.791C165.765,185.259,165.489,185.441,165.489,185.665Zm4.9.832h-3.664v-.426h3.664Z" transform="translate(-149.891 -172.855)" fill="#363636"/>
  </g>
</svg>
